# xmcd CD database file
#
# Track frame offsets:
#	150
#	21358
#	38480
#	58700
#	76773
#	96413
#	116525
#	136625
#	151543
#	169548
#	187730
#	211788
#	235815
#	254540
#
# Disc length: 3633 seconds
#
# Revision: 0
# Processed by: cddbd v1.5.2PL0 Copyright (c) Steve Scherf et al.
# Submitted via: CDex 1.70beta3
#
DISCID=9f0e2f0e
DTITLE=LOL -エル・オー・エル- - lml
DYEAR=2018
DGENRE=avex
TTITLE0=アイスクリーム
TTITLE1=トリガー
TTITLE2=ナナナ
TTITLE3=power of dream
TTITLE4=just go!!
TTITLE5=アイタイキモチ
TTITLE6=melody
TTITLE7=love and smile
TTITLE8=3 pieces
TTITLE9=playback
TTITLE10=夢ノムコウ
TTITLE11=ワスレナイ
TTITLE12=xmas kiss
TTITLE13=with U
EXTD=YEAR: 2018
EXTT0=
EXTT1=
EXTT2=
EXTT3=
EXTT4=
EXTT5=
EXTT6=
EXTT7=
EXTT8=
EXTT9=
EXTT10=
EXTT11=
EXTT12=
EXTT13=
PLAYORDER=
